<?xml version="1.0" encoding="iso-8859-1"?>
<!-- Generator: Adobe Illustrator 19.0.0, SVG Export Plug-In . SVG Version: 6.00 Build 0)  -->
<svg version="1.1" id="Capa_1" xmlns="http://www.w3.org/2000/svg" xmlns:xlink="http://www.w3.org/1999/xlink" x="0px" y="0px"
	 viewBox="0 0 512 512" style="enable-background:new 0 0 512 512;" xml:space="preserve">
<g>
	<rect x="416" y="496" style="fill:#FFD15C;" width="58.667" height="16"/>
	<rect x="37.333" y="496" style="fill:#FFD15C;" width="58.667" height="16"/>
</g>
<path style="fill:#F2F2F2;" d="M490.667,496H21.333C9.6,496,0,486.4,0,474.667V128C0,57.6,57.6,0,128,0h256c70.4,0,128,57.6,128,128
	v346.667C512,486.4,502.4,496,490.667,496z"/>
<path style="fill:#F8B64C;" d="M456.533,439.467H55.467c-11.733,0-21.333-9.6-21.333-21.333V167.467
	c0-11.733,9.6-21.333,21.333-21.333h401.067c11.733,0,21.333,9.6,21.333,21.333v250.667
	C477.867,429.867,468.267,439.467,456.533,439.467z"/>
<g>
	<rect x="55.467" y="359.467" style="fill:#FFD15C;" width="402.133" height="52.267"/>
	<rect x="55.467" y="266.667" style="fill:#FFD15C;" width="402.133" height="52.267"/>
	<rect x="55.467" y="174.933" style="fill:#FFD15C;" width="402.133" height="52.267"/>
</g>
<path style="fill:#FF7058;" d="M477.867,390.4v-4.267l-18.133,18.133L439.467,384l20.267-20.267l18.133,18.133V377.6l-16-16l16-16
	v-4.267l-18.133,18.133L439.467,339.2l20.267-20.267l18.133,18.133V332.8l-16-16l16-16v-4.267l-18.133,18.133L439.467,294.4
	l20.267-20.267l18.133,18.133V288l-16-16l16-16v-4.267l-18.133,18.133L439.467,249.6l20.267-20.267l18.133,18.133V243.2l-16-16
	l16-16v-4.267l-18.133,18.133l-20.267-22.4l20.267-20.267l18.133,18.133v-4.267l-16-16l14.933-14.933c0-1.067,0-2.133-1.067-3.2
	L458.667,179.2L438.4,158.933l10.667-10.667H444.8l-7.467,6.4l-8.533-8.533h-4.267L435.2,156.8l-20.267,20.267L394.667,156.8
	l10.667-10.667h-4.267l-8.533,8.533L384,146.133h-4.267L390.4,156.8l-20.267,20.267L349.867,156.8l10.667-10.667h-4.267
	l-8.533,8.533l-8.533-8.533h-4.267L345.6,156.8l-20.267,20.267L305.067,156.8l10.667-10.667h-4.267l-8.533,8.533l-8.533-8.533H288
	l10.667,10.667L278.4,177.067L258.133,156.8l10.667-10.667h-4.267L256,154.667l-8.533-8.533H243.2l10.667,10.667L233.6,177.067
	l-20.267-19.2L224,147.2h-4.267l-8.533,8.533l-8.533-8.533H198.4l10.667,10.667L188.8,178.133l-20.267-20.267L179.2,147.2h-4.267
	l-8.533,8.533l-8.533-8.533H153.6l10.667,10.667L144,178.133l-20.267-20.267L134.4,147.2h-4.267l-8.533,8.533l-8.533-8.533h-6.4
	l10.667,10.667l-20.267,20.267L76.8,157.867L87.467,147.2H83.2l-8.533,7.467l-8.533-8.533h-4.267L72.533,156.8l-20.267,20.267
	L35.2,160c0,1.067-1.067,2.133-1.067,3.2l14.933,14.933l-16,16v4.267L51.2,180.267l21.333,22.4l-20.267,20.267L34.133,204.8v4.267
	l16,16l-16,16v4.267L52.267,227.2l20.267,20.267l-20.267,20.267L34.133,249.6v4.267l16,16l-16,16v4.267L52.267,272l20.267,20.267
	l-20.267,20.267L34.133,294.4v4.267l16,16l-16,16v4.267L52.267,316.8l20.267,20.267l-20.267,20.267l-18.133-16v4.267l16,16l-16,16
	v4.267l18.133-18.133L72.533,384l-20.267,20.267l-18.133-18.133v4.267l16,16L35.2,421.333c0,1.067,0,2.133,1.067,3.2l17.067-17.067
	L73.6,427.733L62.933,438.4H67.2l7.467-7.467l8.533,8.533h4.267L76.8,428.8l20.267-20.267l20.267,20.267l-10.667,10.667h4.267
	l8.533-8.533l8.533,8.533h4.267L121.6,428.8l20.267-20.267l20.267,20.267l-10.667,10.667h4.267l8.533-8.533l8.533,8.533h4.267
	L166.4,428.8l20.267-20.267l20.267,20.267l-10.667,10.667h4.267l8.533-8.533l8.533,8.533h6.4L213.333,428.8l20.267-20.267
	l20.267,20.267L243.2,439.467h4.267l8.533-8.533l8.533,8.533h4.267L258.133,428.8l20.267-20.267l20.267,20.267L288,439.467h4.267
	l8.533-8.533l8.533,8.533h4.267L302.933,428.8l20.267-20.267l20.267,20.267L332.8,439.467h4.267l8.533-8.533l8.533,8.533h4.267
	L347.733,428.8L368,408.533l20.267,20.267L377.6,439.467h4.267l8.533-8.533l8.533,8.533h6.4L394.667,428.8l20.267-20.267
	L435.2,428.8l-10.667,10.667h4.267l8.533-8.533l8.533,8.533h4.267L439.467,428.8l20.267-20.267L476.8,425.6
	c0-1.067,1.067-2.133,1.067-3.2l-14.933-14.933L477.867,390.4z M457.6,361.6l-20.267,20.267L417.067,361.6l20.267-20.267
	L457.6,361.6z M140.8,315.733L120.533,336l-20.267-20.267l20.267-20.267L140.8,315.733z M100.267,270.933l20.267-20.267
	l20.267,20.267L120.533,291.2L100.267,270.933z M122.667,293.333l20.267-20.267l20.267,20.267L142.933,313.6L122.667,293.333z
	 M145.067,270.933l20.267-20.267l20.267,20.267L165.333,291.2L145.067,270.933z M165.333,295.467l20.267,20.267L165.333,336
	l-20.267-20.267L165.333,295.467z M167.467,293.333l20.267-20.267L208,293.333L187.733,313.6L167.467,293.333z M189.867,270.933
	l20.267-20.267l20.267,20.267L210.133,291.2L189.867,270.933z M211.2,295.467l20.267,20.267L211.2,336l-20.267-20.267L211.2,295.467
	z M213.333,293.333l20.267-20.267l20.267,20.267L233.6,313.6L213.333,293.333z M235.733,270.933L256,250.667l20.267,20.267
	L256,291.2L235.733,270.933z M256,295.467l20.267,20.267L256,336l-20.267-20.267L256,295.467z M258.133,293.333l20.267-20.267
	l20.267,20.267L278.4,313.6L258.133,293.333z M280.533,270.933l20.267-20.267l20.267,20.267L300.8,291.2L280.533,270.933z
	 M300.8,295.467l20.267,20.267L300.8,336l-20.267-20.267L300.8,295.467z M304,293.333l20.267-20.267l20.267,20.267L324.267,313.6
	L304,293.333z M326.4,270.933l20.267-20.267l20.267,20.267L346.667,291.2L326.4,270.933z M346.667,295.467l20.267,20.267
	L346.667,336L326.4,315.733L346.667,295.467z M348.8,293.333l20.267-20.267l20.267,20.267L369.067,313.6L348.8,293.333z
	 M371.2,270.933l20.267-20.267l20.267,20.267L391.467,291.2L371.2,270.933z M391.467,295.467l20.267,20.267L391.467,336
	L371.2,315.733L391.467,295.467z M393.6,293.333l20.267-20.267l20.267,20.267L413.867,313.6L393.6,293.333z M393.6,247.467
	l20.267-20.267l20.267,20.267l-20.267,20.267L393.6,247.467z M391.467,245.333L371.2,225.067l20.267-20.267l20.267,20.267
	L391.467,245.333z M389.333,247.467l-20.267,20.267L348.8,247.467l20.267-20.267L389.333,247.467z M346.667,245.333L326.4,225.067
	l20.267-20.267l20.267,20.267L346.667,245.333z M344.533,247.467l-20.267,20.267L304,247.467l20.267-20.267L344.533,247.467z
	 M300.8,245.333l-20.267-20.267L300.8,204.8l20.267,20.267L300.8,245.333z M298.667,247.467L278.4,267.733l-20.267-20.267
	L278.4,227.2L298.667,247.467z M256,245.333l-20.267-20.267L256,204.8l20.267,20.267L256,245.333z M253.867,247.467L233.6,267.733
	l-20.267-20.267L233.6,227.2L253.867,247.467z M211.2,245.333l-20.267-20.267L211.2,204.8l20.267,20.267L211.2,245.333z
	 M208,247.467l-20.267,20.267l-20.267-20.267l20.267-20.267L208,247.467z M165.333,245.333l-20.267-20.267l20.267-20.267
	l20.267,20.267L165.333,245.333z M163.2,247.467l-20.267,20.267l-20.267-20.267l20.267-20.267L163.2,247.467z M120.533,245.333
	l-20.267-20.267l20.267-20.267l20.267,20.267L120.533,245.333z M118.4,247.467l-20.267,20.267l-20.267-20.267L98.133,227.2
	L118.4,247.467z M118.4,293.333L98.133,313.6l-20.267-20.267l20.267-20.267L118.4,293.333z M118.4,338.133L98.133,358.4
	l-20.267-20.267l20.267-20.267L118.4,338.133z M120.533,340.267l20.267,20.267L120.533,380.8l-20.267-20.267L120.533,340.267z
	 M122.667,338.133l20.267-20.267l20.267,20.267L142.933,358.4L122.667,338.133z M165.333,340.267l20.267,20.267L165.333,380.8
	l-20.267-20.267L165.333,340.267z M167.467,338.133l20.267-20.267L208,338.133L187.733,358.4L167.467,338.133z M211.2,340.267
	l20.267,20.267L211.2,380.8l-20.267-20.267L211.2,340.267z M213.333,338.133l20.267-20.267l20.267,20.267L233.6,358.4
	L213.333,338.133z M256,340.267l20.267,20.267L256,381.867L235.733,361.6L256,340.267z M258.133,338.133l20.267-20.267
	l20.267,20.267L278.4,358.4L258.133,338.133z M300.8,340.267l20.267,20.267L300.8,380.8l-20.267-20.267L300.8,340.267z M304,338.133
	l20.267-20.267l20.267,20.267L324.267,358.4L304,338.133z M346.667,340.267l20.267,20.267L346.667,380.8L326.4,360.533
	L346.667,340.267z M348.8,338.133l20.267-20.267l20.267,20.267L369.067,358.4L348.8,338.133z M391.467,340.267l20.267,20.267
	L391.467,380.8L371.2,360.533L391.467,340.267z M393.6,338.133l20.267-20.267l20.267,20.267L413.867,358.4L393.6,338.133z
	 M457.6,315.733L437.333,336l-20.267-20.267l20.267-20.267L457.6,315.733z M457.6,270.933L437.333,291.2l-20.267-20.267
	l20.267-20.267L457.6,270.933z M457.6,225.067l-20.267,20.267l-20.267-20.267l20.267-20.267L457.6,225.067z M437.333,160
	l20.267,20.267l-20.267,20.267l-20.267-20.267L437.333,160z M435.2,202.667l-20.267,20.267L393.6,202.667l20.267-20.267
	L435.2,202.667z M391.467,160l20.267,20.267l-20.267,20.267L371.2,180.267L391.467,160z M389.333,202.667l-20.267,20.267
	L348.8,202.667l20.267-20.267L389.333,202.667z M346.667,160l20.267,20.267l-20.267,20.267L326.4,180.267L346.667,160z
	 M344.533,202.667l-20.267,20.267L304,202.667l20.267-20.267L344.533,202.667z M300.8,160l20.267,20.267L300.8,200.533
	l-20.267-20.267L300.8,160z M298.667,202.667L278.4,222.933l-20.267-20.267L278.4,182.4L298.667,202.667z M256,160l20.267,20.267
	L256,200.533l-20.267-20.267L256,160z M253.867,202.667L233.6,222.933l-20.267-20.267L233.6,182.4L253.867,202.667z M211.2,160
	l20.267,20.267L211.2,200.533l-20.267-20.267L211.2,160z M208,202.667l-20.267,20.267l-20.267-20.267l20.267-20.267L208,202.667z
	 M165.333,160l20.267,20.267l-20.267,20.267l-20.267-20.267L165.333,160z M163.2,202.667l-20.267,20.267l-20.267-20.267
	l20.267-20.267L163.2,202.667z M120.533,160l20.267,20.267l-20.267,20.267l-20.267-20.267L120.533,160z M118.4,202.667
	l-20.267,20.267L76.8,202.667L97.067,182.4L118.4,202.667z M54.4,180.267L74.667,160l20.267,20.267l-20.267,20.267L54.4,180.267z
	 M54.4,225.067L74.667,204.8l20.267,20.267l-20.267,20.267L54.4,225.067z M54.4,270.933l20.267-20.267l20.267,20.267L74.667,291.2
	L54.4,270.933z M54.4,315.733l20.267-20.267l20.267,20.267L74.667,336L54.4,315.733z M54.4,361.6l20.267-21.333l20.267,20.267
	l-20.267,21.333L54.4,361.6z M74.667,426.667L54.4,406.4l20.267-20.267L94.933,406.4L74.667,426.667z M76.8,384l20.267-20.267
	L117.333,384l-20.267,20.267L76.8,384z M120.533,426.667L100.267,406.4l20.267-20.267L140.8,406.4L120.533,426.667z M122.667,384
	l20.267-20.267L163.2,384l-20.267,20.267L122.667,384z M165.333,426.667L145.067,406.4l20.267-20.267L185.6,406.4L165.333,426.667z
	 M167.467,384l20.267-20.267L208,384l-20.267,20.267L167.467,384z M211.2,426.667L190.933,406.4l20.267-20.267l20.267,20.267
	L211.2,426.667z M213.333,384l20.267-20.267L253.867,384L233.6,404.267L213.333,384z M256,426.667L235.733,406.4L256,386.133
	l20.267,20.267L256,426.667z M258.133,384l20.267-20.267L298.667,384L278.4,404.267L258.133,384z M300.8,426.667L280.533,406.4
	l20.267-20.267l20.267,20.267L300.8,426.667z M304,384l20.267-20.267L344.533,384l-20.267,20.267L304,384z M346.667,426.667
	L326.4,406.4l20.267-20.267l20.267,20.267L346.667,426.667z M348.8,384l20.267-20.267L389.333,384l-20.267,20.267L348.8,384z
	 M391.467,426.667L371.2,406.4l20.267-20.267l20.267,20.267L391.467,426.667z M414.933,404.267L393.6,384l20.267-20.267L434.133,384
	L414.933,404.267z M437.333,426.667L417.067,406.4l20.267-20.267L457.6,406.4L437.333,426.667z"/>
<g>
	<circle style="fill:#CDD6E0;" cx="304" cy="73.6" r="29.867"/>
	<circle style="fill:#CDD6E0;" cx="393.6" cy="73.6" r="29.867"/>
</g>
<g>
	<path style="fill:#ACB3BA;" d="M304,108.8L304,108.8c-4.267,0-6.4-3.2-6.4-6.4V44.8c0-4.267,3.2-7.467,6.4-7.467l0,0
		c4.267,0,7.467,3.2,7.467,7.467v56.533C310.4,105.6,307.2,108.8,304,108.8z"/>
	<path style="fill:#ACB3BA;" d="M393.6,108.8L393.6,108.8c-4.267,0-7.467-3.2-7.467-6.4V44.8c0-4.267,3.2-7.467,7.467-7.467l0,0
		c4.267,0,7.467,3.2,7.467,7.467v56.533C401.067,105.6,397.867,108.8,393.6,108.8z"/>
</g>
<g>
</g>
<g>
</g>
<g>
</g>
<g>
</g>
<g>
</g>
<g>
</g>
<g>
</g>
<g>
</g>
<g>
</g>
<g>
</g>
<g>
</g>
<g>
</g>
<g>
</g>
<g>
</g>
<g>
</g>
</svg>
